<?xml version="1.0" encoding="UTF-8"?>
<svg version="1.1" xmlns="http://www.w3.org/2000/svg" width="1200" height="1148">
<path d="M0 0 C14.09124096 -0.20252636 14.09124096 -0.20252636 18.61962891 3.43310547 C20.26822683 6.27062935 21.59998164 9.0721871 22.78857422 12.12890625 C24.21053656 15.40247033 26.26444619 18.20303548 28.35791016 21.07763672 C28.7770166 21.65940674 29.19612305 22.24117676 29.62792969 22.84057617 C37.87838409 34.02871598 47.58666045 42.14193928 59.60791016 49.01513672 C60.59533203 49.57974609 61.58275391 50.14435547 62.60009766 50.72607422 C82.27456882 61.22978917 104.07124304 64.06732843 125.60791016 58.01513672 C135.30077819 54.79754557 148.24969306 50.37335382 155.60791016 43.01513672 C163.19791016 43.01513672 170.78791016 43.01513672 178.60791016 43.01513672 C178.93791016 105.38513672 179.26791016 167.75513672 179.60791016 232.01513672 C193.13791016 234.32513672 206.66791016 236.63513672 220.60791016 239.01513672 C227.58555927 240.33371063 234.54110617 241.66010823 241.48291016 243.14013672 C242.33071045 243.31911499 243.17851074 243.49809326 244.05200195 243.68249512 C334.14754214 262.7945386 421.91219987 292.75683876 517.67041016 339.39013672 C518.3423642 339.72125458 519.01431824 340.05237244 519.70663452 340.39352417 C542.84752526 351.8209178 542.84752526 351.8209178 544.23971558 355.83831787 C544.63163247 358.15538642 544.62807437 360.15398177 544.4777832 362.49804688 C544.4241008 363.38062164 544.3704184 364.26319641 544.31510925 365.17251587 C544.25060074 366.12347137 544.18609222 367.07442688 544.11962891 368.05419922 C544.05636917 369.04906342 543.99310944 370.04392761 543.92793274 371.06893921 C543.79211421 373.18238493 543.65321187 375.29563437 543.51147461 377.40869141 C543.29948863 380.57913935 543.09836823 383.75012794 542.89892578 386.92138672 C542.28784922 396.41594575 541.60089308 405.89235335 540.56494141 415.35107422 C540.44429573 416.46030746 540.44429573 416.46030746 540.32121277 417.59194946 C539.97853721 420.54962069 539.55275742 423.18059491 538.60791016 426.01513672 C558.07791016 426.01513672 577.54791016 426.01513672 597.60791016 426.01513672 C597.60791016 554.05513672 597.60791016 682.09513672 597.60791016 814.01513672 C540.79242499 820.83299494 540.79242499 820.83299494 512.54570007 823.63876343 C498.764564 825.0184551 484.99142088 826.47311054 471.21854436 827.93264842 C458.86779056 829.24140721 446.51565731 830.52594607 434.1550293 831.73828125 C424.18357808 832.71642784 414.21889828 833.74558088 404.25897008 834.8350178 C399.03129512 835.40499689 393.80387824 835.95004341 388.56734276 836.43253708 C383.67404967 836.88399516 378.79267859 837.40346285 373.91192245 837.97434235 C372.13484673 838.17030025 370.35489132 838.34207532 368.57287407 838.48633957 C359.37986426 839.24483156 353.13217085 840.49638919 346.93540794 847.71167433 C344.81275172 850.43890849 342.82763192 853.23097602 340.91079104 856.10602117 C339.05319366 858.82796459 336.97987596 861.30739011 334.85791016 863.82763672 C332.72617419 866.42750345 330.5967701 869.02887272 328.47900391 871.64013672 C323.3219424 877.98728934 318.04466103 884.21978745 312.70556641 890.41357422 C310.68046897 892.76296648 308.66766286 895.12188812 306.66650391 897.49169922 C300.27592646 905.04255323 293.65681003 912.33116087 286.87353516 919.53076172 C284.09270472 922.48519313 281.36947676 925.48557216 278.67041016 928.51513672 C275.67782172 931.8672783 272.58878556 935.06678971 269.37988281 938.21069336 C267.66363163 939.95839417 266.07439534 941.7637857 264.48681641 943.62841797 C260.25702705 948.49021914 255.7364055 953.03340148 251.17041016 957.57763672 C250.3628125 958.38910156 249.55521484 959.20056641 248.72314453 960.03662109 C244.3903716 964.36241131 239.97584627 968.5150688 235.33422852 972.50708008 C233.15338773 974.41219301 231.1237625 976.43725815 229.10791016 978.51513672 C225.79804317 981.864474 222.40044066 985.01439628 218.82666016 988.07763672 C216.62421336 990.00090012 214.47533161 991.97559416 212.33227539 993.96459961 C207.20330202 998.72203814 201.96260686 1003.25556376 196.51025391 1007.64404297 C193.21827488 1010.33345249 190.00796521 1013.10695626 186.79541016 1015.89013672 C180.52106012 1021.3026818 174.0786468 1026.45797576 167.52539062 1031.52734375 C165.47501021 1033.11825516 163.4335411 1034.72013673 161.39306641 1036.32373047 C145.52177314 1048.77451659 129.34601518 1060.75412337 112.60791016 1072.01513672 C111.25971191 1072.92416748 111.25971191 1072.92416748 109.88427734 1073.8515625 C80.28714715 1093.78121427 49.9614553 1112.36165099 18.58837891 1129.36376953 C16.56761408 1130.48340037 14.57019834 1131.64604128 12.59619141 1132.84619141 C5.45602538 1137.09801092 5.45602538 1137.09801092 1.52978516 1136.71435547 C0.56556641 1136.15361328 -0.39865234 1135.59287109 -1.39208984 1135.01513672 C-2.88682543 1134.25070414 -4.38162398 1133.48639466 -5.87646484 1132.72216797 C-7.63502397 1131.7634451 -9.39001817 1130.79816472 -11.14208984 1129.82763672 C-12.09801025 1129.30153809 -13.05393066 1128.77543945 -14.03881836 1128.23339844 C-25.92002393 1121.66220213 -37.68509778 1114.89122049 -49.39208984 1108.01513672 C-50.33600586 1107.46164551 -51.27992188 1106.9081543 -52.25244141 1106.33789062 C-69.82017923 1095.98312674 -86.71327843 1084.62542782 -103.60717773 1073.21875 C-106.11005459 1071.53099417 -108.61864709 1069.851789 -111.12646484 1068.17138672 C-120.08354997 1062.1403477 -128.75190219 1055.81954387 -137.27880859 1049.19482422 C-140.62086244 1046.59851793 -144.00372542 1044.06413718 -147.40625 1041.54785156 C-156.02089904 1035.17000346 -164.29681865 1028.42983075 -172.52636719 1021.56494141 C-175.00557093 1019.50553479 -177.51129048 1017.47954998 -180.01708984 1015.45263672 C-189.94466702 1007.33007358 -199.57189493 998.86699297 -208.95654297 990.12451172 C-211.84986126 987.42986073 -214.77210366 984.78372846 -217.76708984 982.20263672 C-220.84069425 979.54699107 -223.69535414 976.73547702 -226.53833008 973.83642578 C-228.23477749 972.16969357 -229.97702 970.63708344 -231.79443359 969.10498047 C-237.35514921 964.26829638 -242.52043841 959.03630315 -247.71948242 953.81811523 C-249.45103684 952.08120072 -251.18787343 950.34969783 -252.92529297 948.61865234 C-258.11174027 943.43499111 -263.24368111 938.2587654 -267.97387695 932.64770508 C-269.53604624 930.84942207 -271.19171478 929.18261726 -272.89208984 927.51513672 C-275.8844336 924.56913457 -278.64533157 921.48530664 -281.38427734 918.30419922 C-283.33564169 916.079492 -285.33377441 913.90360407 -287.34643555 911.734375 C-292.15321946 906.55173842 -296.70874985 901.243895 -301.14208984 895.73388672 C-303.49684056 892.88856294 -305.95217364 890.16867382 -308.45458984 887.45263672 C-312.17537107 883.40137262 -315.67537711 879.25767176 -319.07177734 874.93310547 C-322.62597153 870.46343702 -326.2846058 866.07988362 -329.94189453 861.69433594 C-330.50038086 861.02031738 -331.05886719 860.34629883 -331.63427734 859.65185547 C-332.21087475 858.97963329 -332.78747215 858.30741112 -333.38154221 857.61481857 C-335.39208984 855.01513672 -335.39208984 855.01513672 -337.13869095 851.85704422 C-340.55955608 846.21315824 -343.53455146 842.20338394 -350.10094452 840.40561676 C-356.13795878 839.18617428 -362.24581144 838.64492207 -368.37158203 838.07666016 C-370.71853877 837.81540266 -373.06492348 837.54896243 -375.41075134 837.27775574 C-381.75882486 836.55858474 -388.11241844 835.91178349 -394.46949291 835.2778616 C-400.4515937 834.6700025 -406.4274408 834.007564 -412.40370968 833.34541431 C-424.24069706 832.03567346 -436.08260768 830.77804665 -447.92871094 829.55371094 C-459.41441452 828.36650529 -470.89720042 827.15560034 -482.37695312 825.91210938 C-483.43876156 825.79710727 -483.43876156 825.79710727 -484.52202067 825.67978188 C-488.07440913 825.29486799 -491.62674154 824.90943978 -495.17904043 824.52370024 C-502.0853787 823.77379305 -508.9919823 823.02634349 -515.89874268 822.28033447 C-516.56624626 822.20822692 -517.23374984 822.13611937 -517.9214808 822.06182674 C-527.78921725 820.99648194 -537.65867741 819.94811504 -547.52947998 818.91156006 C-548.76228054 818.78201353 -549.99508109 818.65246699 -551.26523924 818.51899481 C-557.0396673 817.91268556 -562.81433455 817.30879821 -568.58940125 816.70860291 C-570.61443471 816.49675212 -572.63946444 816.2848657 -574.66448975 816.07293701 C-575.57012814 815.97966181 -576.47576654 815.8863866 -577.40884852 815.79028487 C-578.24715937 815.70225923 -579.08547021 815.61423358 -579.94918442 815.5235405 C-580.66751064 815.44894757 -581.38583686 815.37435464 -582.12593055 815.29750133 C-584.89288018 814.95273799 -587.64168253 814.47353794 -590.39208984 814.01513672 C-590.39208984 685.97513672 -590.39208984 557.93513672 -590.39208984 426.01513672 C-570.92208984 426.01513672 -551.45208984 426.01513672 -531.39208984 426.01513672 C-532.05208984 422.71513672 -532.71208984 419.41513672 -533.39208984 416.01513672 C-533.70971873 413.43569689 -533.98390481 410.85043048 -534.20849609 408.26123047 C-534.26983734 407.56546906 -534.33117859 406.86970764 -534.39437866 406.15286255 C-534.58840165 403.92000022 -534.7727816 401.68652493 -534.95458984 399.45263672 C-535.01768341 398.68789032 -535.08077698 397.92314392 -535.14578247 397.13522339 C-535.58602114 391.76363944 -535.99751124 386.39025444 -536.39208984 381.01513672 C-536.442323 380.33954712 -536.49255615 379.66395752 -536.54431152 378.96789551 C-536.84759869 374.83963406 -537.10340065 370.71078662 -537.32958984 366.57763672 C-537.39927979 365.55532959 -537.46896973 364.53302246 -537.54077148 363.47973633 C-537.84690044 356.73270059 -537.84690044 356.73270059 -535.88427734 353.63623047 C-532.51711512 351.44599172 -529.11564617 349.42130717 -525.57958984 347.51513672 C-524.7875415 347.08354248 -523.99549316 346.65194824 -523.17944336 346.20727539 C-520.58806649 344.80157449 -517.9900839 343.40856268 -515.39208984 342.01513672 C-514.54710937 341.55574707 -513.70212891 341.09635742 -512.83154297 340.62304688 C-473.17198851 319.08949999 -430.84001175 302.17322762 -388.39208984 287.01513672 C-387.68306519 286.76139282 -386.97404053 286.50764893 -386.24353027 286.24621582 C-326.23056387 264.80055166 -264.30052531 248.18853985 -201.57958984 236.89013672 C-200.38194 236.67315125 -200.38194 236.67315125 -199.16009521 236.45178223 C-196.89889345 236.04567584 -194.63626937 235.64918074 -192.37255859 235.25732422 C-191.11338623 235.03931152 -189.85421387 234.82129883 -188.55688477 234.59667969 C-183.19491174 233.8479711 -177.78738151 233.46474436 -172.39208984 233.01513672 C-172.39208984 170.31513672 -172.39208984 107.61513672 -172.39208984 43.01513672 C-146.12177182 43.01513672 -146.12177182 43.01513672 -138.30615234 48.85107422 C-124.16382274 59.35355491 -103.64067603 62.83541631 -86.39208984 61.01513672 C-64.43859156 57.65719171 -44.75986852 46.73168767 -29.39208984 31.01513672 C-28.74111328 30.38478516 -28.09013672 29.75443359 -27.41943359 29.10498047 C-21.27430864 22.7274158 -17.08896672 14.58656741 -12.63134766 6.99462891 C-12.01791504 6.01478027 -12.01791504 6.01478027 -11.39208984 5.01513672 C-10.95501709 4.28915283 -10.51794434 3.56316895 -10.06762695 2.81518555 C-7.22418113 -0.23956107 -3.98584955 0.2132501 0 0 Z " fill="#FCFDFD" transform="translate(596.39208984375,4.98486328125)"/>
<path d="M0 0 C376.53 0 753.06 0 1141 0 C1141 83.16 1141 166.32 1141 252 C764.47 252 387.94 252 0 252 C0 168.84 0 85.68 0 0 Z " fill="#000000" transform="translate(29,504)"/>
<path d="M0 0 C376.53 0 753.06 0 1141 0 C1141 5.94 1141 11.88 1141 18 C1122.45519298 20.06709782 1103.91015681 22.13213403 1085.36490822 24.19526625 C1083.91668958 24.35637863 1082.46847155 24.51749648 1081.02025414 24.67861986 C1041.43523887 29.08264876 1001.84828283 33.46620955 962.24740601 37.72579956 C961.44236822 37.81240089 960.63733044 37.89900223 959.80789757 37.98822784 C958.22445168 38.15841083 956.64097769 38.32833256 955.05747414 38.49797821 C951.36603831 38.89397889 947.6752949 39.29481495 943.98583984 39.70889282 C937.43976999 40.44019607 930.90109762 41.1035919 924.33129883 41.59545898 C923.13579407 41.69776321 921.94028931 41.80006744 920.70855713 41.9054718 C918.51937101 42.09081826 916.3273552 42.24663221 914.13348389 42.36418152 C908.48102798 42.87716913 905.49418667 43.90419804 901.58618164 48.13305664 C899.14511491 51.2341925 896.90679548 54.38942853 895.0234375 57.86328125 C892.20600109 62.78050518 888.95557894 67.04681109 885.3125 71.375 C884.24080174 72.67831661 883.16918549 73.98170067 882.09765625 75.28515625 C878.71424982 79.35431703 875.30647695 83.40283915 871.87109375 87.42822266 C869.12010082 90.65404176 866.45158287 93.93243836 863.8125 97.25 C859.11103829 103.03968431 853.99557661 108.41929048 848.84692383 113.81152344 C848.19361084 114.49633789 847.54029785 115.18115234 846.8671875 115.88671875 C846.29081543 116.48701904 845.71444336 117.08731934 845.12060547 117.70581055 C843.26910576 119.70886635 841.47086997 121.74293503 839.68041992 123.80029297 C828.51652693 136.60217487 816.5210168 148.64088388 804.49975586 160.63061523 C802.03706613 163.08787782 799.57985798 165.55053317 797.12304688 168.01367188 C795.531571 169.60448787 793.93978546 171.19499413 792.34765625 172.78515625 C791.62667252 173.50816422 790.90568878 174.23117218 790.16285706 174.97608948 C786.14573849 178.97490283 782.02974836 182.79572204 777.73777771 186.49803162 C775.77872014 188.19125309 773.87951631 189.93782439 772 191.71875 C771.34 192.34136719 770.68 192.96398437 770 193.60546875 C769.34 194.23066406 768.68 194.85585938 768 195.5 C762.76747344 200.45659254 757.45774394 205.29212198 752 210 C751.14269287 210.74056641 751.14269287 210.74056641 750.26806641 211.49609375 C748.61880302 212.91711738 746.96643524 214.33441747 745.3125 215.75 C744.71727539 216.25950195 744.12205078 216.76900391 743.50878906 217.29394531 C741.67340814 218.86366624 739.83694262 220.43210702 738 222 C737.42491699 222.49113281 736.84983398 222.98226562 736.25732422 223.48828125 C729.26881309 229.45031086 722.22616168 235.32648657 715 241 C714.0709082 241.73210693 714.0709082 241.73210693 713.12304688 242.47900391 C702.34295482 250.96465021 691.41512606 259.22422463 680.32617188 267.30175781 C678.08129163 268.94065233 675.84470081 270.59029578 673.609375 272.2421875 C648.81844202 290.47286124 622.43195769 306.47549446 595.61132812 321.52246094 C592.87878708 323.06858458 590.16581447 324.64590287 587.453125 326.2265625 C585.65662178 327.2558575 583.85975909 328.2845254 582.0625 329.3125 C581.23983643 329.79936279 580.41717285 330.28622559 579.56958008 330.7878418 C578.79509521 331.22523682 578.02061035 331.66263184 577.22265625 332.11328125 C576.21344116 332.69783081 576.21344116 332.69783081 575.18383789 333.29418945 C571.28150979 334.55541143 568.04541822 333.44984309 564.37646484 331.87109375 C563.05702881 331.16146484 563.05702881 331.16146484 561.7109375 330.4375 C560.1957251 329.62587402 560.1957251 329.62587402 558.64990234 328.79785156 C557.56918457 328.20456055 556.4884668 327.61126953 555.375 327 C554.24143066 326.38350586 553.10786133 325.76701172 551.93994141 325.13183594 C539.71799444 318.43770478 527.83475213 311.18607138 515.99023438 303.85058594 C513.48368536 302.29934153 510.97098843 300.75932637 508.453125 299.2265625 C479.74201078 281.65755272 451.80808204 261.61063231 426 240 C424.20956855 238.54015043 422.4178634 237.08186182 420.625 235.625 C415.98211666 231.82868228 411.39821408 227.96763924 406.83203125 224.07983398 C403.47278953 221.22537194 400.06808508 218.44094638 396.625 215.6875 C390.6247694 210.81176357 385.04747334 205.51153371 379.42578125 200.2109375 C376.99341837 197.92034812 374.53567481 195.67659232 372 193.5 C358.22981232 181.59698955 345.44752052 168.60663593 332.59960938 155.72998047 C330.00010179 153.12472358 327.39605456 150.52405734 324.79070282 147.92464638 C322.75210615 145.88968486 320.71592336 143.85232134 318.68043518 141.81425095 C317.2622161 140.39505843 315.84201533 138.97784711 314.42175293 137.56069946 C309.95051292 133.07329673 305.60087623 128.54112668 301.48556519 123.72367859 C298.95879302 120.79190345 296.28042266 118.00225615 293.625 115.1875 C288.91846726 110.16311299 284.47141936 105.01016609 280.16796875 99.6328125 C277.90967537 96.89030846 275.54218666 94.2906241 273.125 91.6875 C268.94555253 87.14098242 265.09690665 82.42916044 261.32348633 77.5480957 C258.82485599 74.31768924 256.29557478 71.1221314 253.6953125 67.97265625 C253.13239502 67.28969482 252.56947754 66.6067334 251.98950195 65.90307617 C250.91958187 64.60917224 249.84560547 63.31860445 248.76635742 62.0324707 C248.00995972 61.11534302 248.00995972 61.11534302 247.23828125 60.1796875 C246.42363403 59.22425049 246.42363403 59.22425049 245.5925293 58.24951172 C244 56 244 56 242.80786133 52.97314453 C241.09458647 49.18124936 239.49024228 46.29424823 236 44 C227.7527255 41.20022595 218.75519186 40.95211048 210.12589645 40.29072952 C206.62690517 40.00969475 203.13442908 39.66309508 199.64086914 39.32202148 C193.88045602 38.76624348 188.11803532 38.24282871 182.35253906 37.74267578 C171.3394937 36.78316295 160.35032124 35.60784546 149.35903931 34.42764282 C145.90623255 34.05916317 142.45266945 33.69874908 138.9987793 33.34057617 C118.46589367 31.20498397 97.96347218 28.82634023 77.46102905 26.41943359 C56.41837121 23.94910897 35.36880967 21.59088717 14.28857422 19.45874023 C13.38056061 19.3653537 12.472547 19.27196716 11.53701782 19.17575073 C9.86437117 19.00382188 8.19135085 18.83547476 6.51791382 18.67141724 C1.11265908 18.11265908 1.11265908 18.11265908 0 17 C0 11.39 0 5.78 0 0 Z " fill="#2a2a2aff" transform="translate(29,780)"/>
<path d="M0 0 C0.00879936 1.53856659 0.00879936 1.53856659 0.01777649 3.10821533 C0.075214 12.81728276 0.14808385 22.52613073 0.23571491 32.23497391 C0.2802707 37.22531745 0.31955872 42.21558213 0.34643555 47.20605469 C0.37261697 52.03026355 0.41312223 56.85416649 0.46318626 61.67818451 C0.47975528 63.51034463 0.49133115 65.34255754 0.49761391 67.1747818 C0.57148277 86.75285493 3.95689254 102.7265425 18.08984375 117.37109375 C37.27426991 134.70145456 61.95344658 140.43488077 86.78564453 144.5559082 C112.23047297 148.84400017 136.06073907 158.79385285 152 180 C154.06045786 183.07124851 156.04594544 186.18874498 157.98071289 189.34057617 C159.93418474 192.73208576 159.93418474 192.73208576 163 195 C163.23203125 194.31679688 163.4640625 193.63359375 163.703125 192.9296875 C165.29515765 189.3332282 167.44173109 186.28435534 169.75 183.125 C170.43195435 182.18865723 170.43195435 182.18865723 171.12768555 181.23339844 C172.41098452 179.48325797 173.70459616 177.74118624 175 176 C175.75990234 174.95199219 175.75990234 174.95199219 176.53515625 173.8828125 C189.70419617 157.04899388 211.94003822 149.34958251 232.125 145.5 C233.23520508 145.28134277 234.34541016 145.06268555 235.48925781 144.83740234 C240.06188961 143.9387541 244.63452574 143.05192412 249.2265625 142.2578125 C268.64254949 138.77068402 288.00666297 132.19855451 303 119 C303.77214844 118.32195312 304.54429687 117.64390625 305.33984375 116.9453125 C315.21278984 107.71304012 322.58098454 93.93728154 323.15821838 80.24772644 C323.17873444 78.76962075 323.19410031 77.29143789 323.20532227 75.81323242 C323.22017166 74.59781769 323.22017166 74.59781769 323.23532104 73.35784912 C323.26680619 70.69041831 323.29164193 68.02296971 323.31640625 65.35546875 C323.336987 63.50172982 323.35798377 61.64799546 323.37937927 59.79426575 C323.43448417 54.92322503 323.48394439 50.05214276 323.53222656 45.18103027 C323.5825263 40.20723793 323.63816809 35.23350567 323.69335938 30.25976562 C323.80079923 20.50656178 323.9022755 10.75330569 324 1 C331.46944387 0.88931121 338.67615163 0.79988885 346.03125 2.171875 C346.70613464 2.29406906 347.38101929 2.41626312 348.07635498 2.54216003 C350.21993535 2.93304296 352.35981062 3.34099819 354.5 3.75 C356.01379856 4.03045364 357.52779922 4.30981842 359.04199219 4.58813477 C362.02192873 5.13721234 365.00061292 5.69244463 367.97851562 6.25244141 C371.32970315 6.87983223 374.68546792 7.47246004 378.046875 8.04296875 C392.27556468 10.47171523 406.2813634 13.75158831 420.31396484 17.11962891 C423.79616432 17.95131597 427.28184625 18.76588981 430.76953125 19.57421875 C441.94203068 22.17935501 452.94829224 25.06290634 463.90625 28.45703125 C468.39979328 29.84026566 472.92413864 31.07856143 477.46337891 32.30200195 C495.2232982 37.1153713 512.60236806 43.03190882 530 49 C530.66944641 49.22880859 531.33889282 49.45761719 532.02862549 49.69335938 C580.01622442 66.09660091 627.16190848 85.21359425 672 109 C672.9389209 109.48025635 673.8778418 109.9605127 674.84521484 110.45532227 C675.55629395 110.96506592 676.26737305 111.47480957 677 112 C677.519005 115.22685719 677.65951124 117.83316186 677.5625 121.0625 C677.54662842 122.01423096 677.53075684 122.96596191 677.5144043 123.9465332 C677.24781653 132.90149055 676.33157595 141.79278499 675.3125 150.6875 C675.09025757 152.64925171 675.09025757 152.64925171 674.86352539 154.65063477 C673.18175472 168.26156838 670.51106259 181.440262 668 195 C689.12 195 710.24 195 732 195 C732 202.92 732 210.84 732 219 C355.8 219 -20.4 219 -408 219 C-408 211.08 -408 203.16 -408 195 C-386.88 195 -365.76 195 -344 195 C-344.928125 190.359375 -345.85625 185.71875 -346.8125 180.9375 C-351.18081862 158.151851 -353.7460765 135.23890135 -353 112 C-340.35009591 104.56427989 -327.31116126 98.16159587 -314 92 C-312.40575195 91.2577417 -312.40575195 91.2577417 -310.77929688 90.50048828 C-272.1306983 72.57940575 -232.19089191 57.75865174 -191.8203125 44.22265625 C-190.97012039 43.93647934 -190.11992828 43.65030243 -189.24397278 43.35545349 C-183.12102638 41.31618337 -176.95011246 39.54658893 -170.71981812 37.86932373 C-165.01658107 36.33290111 -159.42270826 34.53125689 -153.8125 32.6875 C-139.73061469 28.09913442 -125.3602558 24.59163831 -111 21 C-109.4361106 20.605815 -107.87229131 20.21135158 -106.30859375 19.81640625 C-103.85438314 19.19965468 -101.39869251 18.58875609 -98.94140625 17.984375 C-95.89929923 17.2331592 -92.86940018 16.44090587 -89.83984375 15.640625 C-66.93635519 9.65361742 -43.71287674 5.58411225 -20.3125 2.125 C-19.57517639 2.01550018 -18.83785278 1.90600037 -18.07818604 1.79318237 C-15.9864032 1.48473523 -13.89385706 1.18234759 -11.80078125 0.8828125 C-10.60622314 0.71152832 -9.41166504 0.54024414 -8.1809082 0.36376953 C-5.40807519 0.04666759 -2.78434407 -0.02750909 0 0 Z " fill="#2a2a2aff" transform="translate(438,260)"/>
<path d="M0 0 C3.3015007 3.12018259 5.99103429 6.55149364 8.6875 10.1875 C27.30512489 34.65364707 55.54998604 50.1759016 85.890625 54.5625 C108.53807729 57.21931345 129.2917947 52.54738426 148.92578125 41.1015625 C151 40 151 40 153 40 C153.04578532 74.26022445 153.08102321 108.5204419 153.10213066 142.78069034 C153.10463205 146.82612434 153.1072207 150.87155828 153.10986328 154.91699219 C153.11065021 156.12504344 153.11065021 156.12504344 153.11145304 157.35749978 C153.12015385 170.39508849 153.13592204 183.43265955 153.15430559 196.47023779 C153.17301366 209.84962214 153.18411865 223.22899725 153.18817699 236.60839415 C153.19092016 244.86309695 153.19958197 253.11774986 153.21583293 261.3724373 C153.226411 267.03424127 153.22959876 272.69601948 153.22700275 278.35783261 C153.22572274 281.62359236 153.22877061 284.88924669 153.23841095 288.15499496 C153.2483609 291.69930607 153.2459685 295.24340368 153.24050903 298.78771973 C153.24633472 299.81497303 153.2521604 300.84222634 153.25816262 301.90060854 C153.20066535 315.71066493 148.27390958 327.57071253 138.6796875 337.6171875 C119.71495103 354.48087445 95.00481008 359.7156746 70.734375 363.703125 C44.79081049 368.14764004 19.75162811 379.02933274 3.9375 401.0625 C3.298125 402.031875 2.65875 403.00125 2 404 C-1.66048407 402.52451854 -3.3078677 400.58781391 -5.625 397.4375 C-22.70781243 375.61295103 -49.90130848 366.36810139 -76.5 362.5 C-101.26215871 358.87005209 -127.5463281 350.96029431 -143.390625 330.17578125 C-149.43996257 321.19287938 -151.60210496 312.01929637 -151.48101807 301.31306458 C-151.48443577 300.18885611 -151.48785347 299.06464764 -151.49137473 297.90637225 C-151.49792398 294.16754048 -151.47602549 290.42943863 -151.45410156 286.69067383 C-151.45297244 283.999414 -151.45343237 281.30819786 -151.45587158 278.61694336 C-151.4579615 272.8373806 -151.44549034 267.05799951 -151.42292023 261.27848244 C-151.39030977 252.92246673 -151.379984 244.56653819 -151.37496826 236.21046575 C-151.36622974 222.65092161 -151.33965347 209.09147413 -151.30175781 195.53198242 C-151.26500027 182.36597169 -151.23670687 169.19998728 -151.21972656 156.03393555 C-151.21867567 155.22137571 -151.21762477 154.40881588 -151.21654204 153.57163302 C-151.21132161 149.49495871 -151.20626684 145.41828422 -151.20129442 141.3416096 C-151.15987734 107.56100299 -151.0894684 73.78051338 -151 40 C-150.47320145 40.25692627 -149.94640289 40.51385254 -149.40364075 40.77856445 C-146.96613167 41.96289109 -144.52415195 43.13771393 -142.08203125 44.3125 C-141.25384888 44.71662109 -140.4256665 45.12074219 -139.5723877 45.53710938 C-114.07105071 57.75688809 -87.12440613 57.59340545 -60.66845703 48.53564453 C-35.78955628 39.54814838 -13.25943576 23.28059347 0 0 Z " fill="#FCFBFC" transform="translate(599,33)"/>
<path d="M0 0 C3.3015007 3.12018259 5.99103429 6.55149364 8.6875 10.1875 C27.30512489 34.65364707 55.54998604 50.1759016 85.890625 54.5625 C108.53807729 57.21931345 129.2917947 52.54738426 148.92578125 41.1015625 C151 40 151 40 153 40 C153.04578532 74.26022445 153.08102321 108.5204419 153.10213066 142.78069034 C153.10463205 146.82612434 153.1072207 150.87155828 153.10986328 154.91699219 C153.11065021 156.12504344 153.11065021 156.12504344 153.11145304 157.35749978 C153.12015385 170.39508849 153.13592204 183.43265955 153.15430559 196.47023779 C153.17301366 209.84962214 153.18411865 223.22899725 153.18817699 236.60839415 C153.19092016 244.86309695 153.19958197 253.11774986 153.21583293 261.3724373 C153.226411 267.03424127 153.22959876 272.69601948 153.22700275 278.35783261 C153.22572274 281.62359236 153.22877061 284.88924669 153.23841095 288.15499496 C153.2483609 291.69930607 153.2459685 295.24340368 153.24050903 298.78771973 C153.24633472 299.81497303 153.2521604 300.84222634 153.25816262 301.90060854 C153.20066535 315.71066493 148.27390958 327.57071253 138.6796875 337.6171875 C119.71495103 354.48087445 95.00481008 359.7156746 70.734375 363.703125 C44.79081049 368.14764004 19.75162811 379.02933274 3.9375 401.0625 C3.298125 402.031875 2.65875 403.00125 2 404 C-1.66048407 402.52451854 -3.3078677 400.58781391 -5.625 397.4375 C-22.70781243 375.61295103 -49.90130848 366.36810139 -76.5 362.5 C-101.26215871 358.87005209 -127.5463281 350.96029431 -143.390625 330.17578125 C-149.43996257 321.19287938 -151.60210496 312.01929637 -151.48101807 301.31306458 C-151.48443577 300.18885611 -151.48785347 299.06464764 -151.49137473 297.90637225 C-151.49792398 294.16754048 -151.47602549 290.42943863 -151.45410156 286.69067383 C-151.45297244 283.999414 -151.45343237 281.30819786 -151.45587158 278.61694336 C-151.4579615 272.8373806 -151.44549034 267.05799951 -151.42292023 261.27848244 C-151.39030977 252.92246673 -151.379984 244.56653819 -151.37496826 236.21046575 C-151.36622974 222.65092161 -151.33965347 209.09147413 -151.30175781 195.53198242 C-151.26500027 182.36597169 -151.23670687 169.19998728 -151.21972656 156.03393555 C-151.21867567 155.22137571 -151.21762477 154.40881588 -151.21654204 153.57163302 C-151.21132161 149.49495871 -151.20626684 145.41828422 -151.20129442 141.3416096 C-151.15987734 107.56100299 -151.0894684 73.78051338 -151 40 C-150.47320145 40.25692627 -149.94640289 40.51385254 -149.40364075 40.77856445 C-146.96613167 41.96289109 -144.52415195 43.13771393 -142.08203125 44.3125 C-141.25384888 44.71662109 -140.4256665 45.12074219 -139.5723877 45.53710938 C-114.07105071 57.75688809 -87.12440613 57.59340545 -60.66845703 48.53564453 C-35.78955628 39.54814838 -13.25943576 23.28059347 0 0 Z M-134 165 C-134.061875 188.244375 -134.12375 211.48875 -134.1875 235.4375 C-134.21481201 242.7689624 -134.24212402 250.1004248 -134.27026367 257.65405273 C-134.28029881 264.24286441 -134.28029881 264.24286441 -134.28633118 270.8316803 C-134.28911895 273.75968792 -134.30033259 276.68753131 -134.31672668 279.61549377 C-134.33740049 283.35774483 -134.34345576 287.09975925 -134.33921683 290.84206212 C-134.34051818 292.85347963 -134.35655866 294.86487137 -134.37328625 296.87621975 C-134.33368668 308.42029839 -132.14103483 316.59635115 -124 325 C-107.4245341 339.43960732 -85.62278737 342.53627431 -64.82641602 346.6262207 C-43.80252439 350.78310766 -16.88042425 358.71700957 -2.4921875 375.7890625 C-1.08774307 377.18801599 -1.08774307 377.18801599 0.796875 377.00390625 C4.04249539 375.52496221 6.55148169 373.2235495 9.25 370.9375 C16.61702614 364.9404036 24.35075621 360.84049818 33 357 C34.15628906 356.46761719 35.31257812 355.93523437 36.50390625 355.38671875 C51.39130272 348.94937525 67.43369004 345.6837032 83.375 343.0625 C100.42671174 340.19007135 118.73032862 333.8491057 130 320 C133.87228299 314.3751241 135.12614095 309.80980755 135.12025452 303.05218506 C135.12163201 301.83757473 135.12300951 300.6229644 135.12442875 299.3715477 C135.12088218 298.02341438 135.11724428 296.67528129 135.11352539 295.32714844 C135.11321901 293.88488899 135.11335263 292.4426294 135.11389065 291.00037003 C135.11411638 287.13863113 135.10832114 283.27692323 135.10128021 279.41519165 C135.09558465 275.79127912 135.09531706 272.16737412 135.09460449 268.54345703 C135.08935748 257.94563392 135.07539633 247.34781657 135.0625 236.75 C135.0315625 201.23375 135.0315625 201.23375 135 165 C46.23 165 -42.54 165 -134 165 Z " fill="#000000" transform="translate(599,33)"/>
<path d="M0 0 C11.64987784 -0.11372733 23.2993768 -0.20513017 34.94968796 -0.25906086 C40.36152806 -0.28496695 45.77296318 -0.32001063 51.18457031 -0.37719727 C56.42365652 -0.4322036 61.66235744 -0.46156256 66.90171051 -0.47438622 C68.88365989 -0.48350468 70.86559227 -0.50130363 72.84737396 -0.52865028 C95.84465257 -0.83287671 119.63162453 3.67372706 137 20 C148.40157494 31.11029383 152.91428713 44.03551963 153.37231445 59.90673828 C153.38512017 62.29456391 153.38156857 64.68252256 153.36328125 67.0703125 C153.36402901 68.99555252 153.36402901 68.99555252 153.36479187 70.95968628 C153.36470315 73.65049346 153.35448115 76.34099475 153.33618164 79.03173828 C153.31345197 82.4448575 153.31296981 85.85753387 153.31969929 89.27070808 C153.32388145 92.57895809 153.31184276 95.88707756 153.30078125 99.1953125 C153.30169266 100.40188507 153.30260406 101.60845764 153.30354309 102.85159302 C153.15611749 120.71758159 149.55318413 135.97914105 136.97265625 149.1171875 C128.99031721 156.76753052 119.73643487 160.72309255 109.25 163.75 C108.23401733 164.04813599 108.23401733 164.04813599 107.19750977 164.35229492 C92.75766298 168.23297256 78.01534493 168.2801107 63.1875 168.1953125 C61.23738756 168.19157184 59.28727321 168.18872986 57.3371582 168.18673706 C52.26068728 168.17918337 47.18433495 168.15960821 42.10791016 168.1373291 C36.90528975 168.11669027 31.70264975 168.10769719 26.5 168.09765625 C16.33327345 168.07635259 6.16666524 168.04124022 -4 168 C-4 158.1 -4 148.2 -4 138 C-0.101875 137.01 -0.101875 137.01 3.875 136 C5.10065674 135.68675781 5.10065674 135.68675781 6.35107422 135.3671875 C11.77777778 134 11.77777778 134 14 134 C13.67 100.67 13.34 67.34 13 33 C6.565 31.515 6.565 31.515 0 30 C0 20.1 0 10.2 0 0 Z " fill="#FDFEFE" transform="translate(115,546)"/>
<path d="M0 0 C14.33443448 -0.04521245 28.66882147 -0.08189418 43.00331116 -0.10362434 C49.65962744 -0.11405453 56.31587868 -0.1281999 62.97216797 -0.15087891 C69.39771021 -0.17263433 75.82320307 -0.18457439 82.2487793 -0.18975449 C84.69833147 -0.19344537 87.14788099 -0.20065273 89.59741211 -0.21146011 C93.0324484 -0.22601069 96.46728152 -0.22797642 99.90234375 -0.22705078 C101.4160984 -0.23783661 101.4160984 -0.23783661 102.96043396 -0.24884033 C108.6686103 -0.23223274 113.52457486 0.37009503 119 2 C119.86367188 2.24878906 120.72734375 2.49757813 121.6171875 2.75390625 C132.10117911 6.50855376 139.74660832 14.32440134 145 24 C148.90774488 32.30802665 149.61838474 39.83667301 149.5 48.9375 C149.52320313 50.71543945 149.52320313 50.71543945 149.546875 52.52929688 C149.48579418 66.44808966 145.14162494 77.57368496 135.6875 87.75 C131.43169652 91.8162354 126.04818562 96 120 96 C123.79845383 103.30278213 128.31505693 109.97319692 133.0625 116.6875 C135.71110722 120.45639323 138.35781147 124.22660376 141 128 C141.45745605 128.65049316 141.91491211 129.30098633 142.38623047 129.97119141 C145 133.76477948 145 133.76477948 145 136 C149.95 136.33 154.9 136.66 160 137 C160 147.23 160 157.46 160 168 C136.24 168 112.48 168 88 168 C88 158.1 88 148.2 88 138 C90.97 137.01 93.94 136.02 97 135 C91.93191339 125.86253797 86.54579925 116.99179732 80.86230469 108.22338867 C80.36118164 107.44326416 79.86005859 106.66313965 79.34375 105.859375 C78.66602539 104.81475098 78.66602539 104.81475098 77.97460938 103.74902344 C77 102 77 102 77 100 C70.07 100 63.14 100 56 100 C56 111.22 56 122.44 56 134 C61.28 135.32 66.56 136.64 72 138 C72 147.9 72 157.8 72 168 C47.25 168 22.5 168 -3 168 C-3 158.1 -3 148.2 -3 138 C4 136 4 136 14 134 C14 100.67 14 67.34 14 33 C10.37 32.34 6.74 31.68 3 31 C2.01 30.67 1.02 30.34 0 30 C0 20.1 0 10.2 0 0 Z " fill="#FDFEFE" transform="translate(317,546)"/>
<path d="M0 0 C3.68774615 0.13998402 7.37512663 0.28804204 11.0625 0.4375 C12.10083984 0.47681641 13.13917969 0.51613281 14.20898438 0.55664062 C17.14142408 0.67766195 20.06997205 0.83107142 23 1 C24.29808594 1.0721875 25.59617187 1.144375 26.93359375 1.21875 C30.94440955 2.2406139 32.36425755 3.91088032 35 7.0625 C35.85722656 8.06539062 36.71445312 9.06828125 37.59765625 10.1015625 C38.39042969 11.05804687 39.18320312 12.01453125 40 13 C41.14136343 14.31638892 42.28667827 15.62937171 43.4375 16.9375 C43.99179687 17.57429687 44.54609375 18.21109375 45.1171875 18.8671875 C49.33612221 23.64631271 53.67346619 28.31850289 58 33 C58.55139648 33.59796387 59.10279297 34.19592773 59.67089844 34.81201172 C66.3006 41.99450072 73.00133833 49.07032737 79.95727539 55.93798828 C82.54160178 58.50103555 85.02149992 61.09892634 87.375 63.875 C94.47581247 72.19708242 102.46053724 79.97528146 110.8125 87.03125 C114.60712491 90.44641242 118.15608522 94.11645357 121.7265625 97.76367188 C125.33569491 101.42636446 129.07277074 104.85911858 132.96484375 108.21875 C137.08542398 111.82524633 141.02511731 115.62926151 145 119.39453125 C149.57343265 123.70892182 154.23854897 127.89425212 159 132 C159.5662207 132.48839355 160.13244141 132.97678711 160.71582031 133.47998047 C162.34986359 134.88525769 163.98675732 136.28712127 165.625 137.6875 C169.2662957 140.80023641 172.90588718 143.91435455 176.5234375 147.0546875 C183.87723094 153.42652959 191.37733267 159.55068711 199.07373047 165.50341797 C201.1523761 167.11838599 203.2192699 168.74765255 205.28515625 170.37890625 C227.34195242 187.75145579 250.58450694 204.10491188 275 218 C275.88558594 218.51143555 276.77117187 219.02287109 277.68359375 219.54980469 C280.65443105 221.2591211 283.63763501 222.94475921 286.625 224.625 C287.57455566 225.17124023 288.52411133 225.71748047 289.50244141 226.28027344 C290.40140137 226.77817383 291.30036133 227.27607422 292.2265625 227.7890625 C293.02658691 228.23975098 293.82661133 228.69043945 294.65087891 229.15478516 C298.22824861 230.44192441 300.66701794 229.5564118 304.08276367 228.13061523 C306.45695729 226.91002231 308.82788318 225.68614901 311.1875 224.4375 C312.09661133 223.95788818 313.00572266 223.47827637 313.94238281 222.98413086 C332.07109048 213.25835721 349.42971687 202.17970063 366 190 C367.5883008 188.84472086 369.17685289 187.68978714 370.765625 186.53515625 C383.25469494 177.42593389 395.44065886 167.99321264 407.37109375 158.1640625 C409.10728158 156.73486776 410.8493864 155.31282724 412.59765625 153.8984375 C423.5672667 145.01289148 434.18609762 135.72665248 444.59375 126.19140625 C446.68565123 124.28628191 448.79963385 122.41560939 450.9375 120.5625 C455.78522259 116.34155367 460.51354315 111.99223722 465.23414612 107.63041687 C466.36467781 106.58659441 467.49628212 105.54393172 468.6292572 104.50276184 C480.85017983 93.25806844 492.60242136 81.55311538 504.33032227 69.80004883 C507.04301947 67.0815972 509.76026436 64.36774207 512.4788065 61.65513706 C514.60575712 59.53181952 516.73029668 57.40610232 518.85413933 55.27967644 C519.85519349 54.27796361 520.85696749 53.27696953 521.8595295 52.27676582 C526.91561151 47.22999632 531.8767191 42.16268138 536.50035095 36.71372986 C538.09414444 34.89241607 539.77230161 33.19412079 541.5 31.5 C544.5094249 28.53728458 547.29020775 25.43576691 550.046875 22.23828125 C553.12840017 18.70685341 556.30552445 15.26317997 559.47265625 11.80859375 C561.89713673 9.24725533 561.89713673 9.24725533 563.23974609 7.15258789 C565.38047299 4.13582755 566.91374441 2.31871168 570.53540039 1.25610352 C573.53451853 0.86205321 576.47732514 0.67140801 579.5 0.5625 C580.51964844 0.49869141 581.53929687 0.43488281 582.58984375 0.36914062 C587.39404338 0.08488694 592.18660593 -0.07417902 597 0 C595.28469777 3.96663641 592.66497085 7.20243881 590 10.5625 C589.26958496 11.48796631 589.26958496 11.48796631 588.52441406 12.43212891 C584.62239194 17.32544144 580.51760789 21.96864738 576.26171875 26.55859375 C574.32063341 28.65389313 572.43015898 30.77704888 570.5625 32.9375 C565.8164735 38.38991184 560.90517364 43.69126504 556 49 C555.4539209 49.59264648 554.9078418 50.18529297 554.34521484 50.79589844 C547.51242365 58.20476091 540.58478069 65.47990795 533.41601562 72.56469727 C529.95911979 75.99535581 526.69749127 79.53205569 523.53515625 83.23828125 C519.82139771 87.5001263 515.77264427 91.37341096 511.46484375 95.02734375 C506.04472323 99.7475707 501.04265369 104.88535737 496 110 C490.4481519 115.6311063 484.90836808 121.21515612 478.89453125 126.359375 C475.49860633 129.30017596 472.26080181 132.41115453 469 135.5 C463.76751286 140.4565552 458.45857938 145.29312585 453 150 C452.4337793 150.48839355 451.86755859 150.97678711 451.28417969 151.47998047 C449.65013641 152.88525769 448.01324268 154.28712127 446.375 155.6875 C442.7337043 158.80023641 439.09411282 161.91435455 435.4765625 165.0546875 C428.12126865 171.42782964 420.61962822 177.55356749 412.921875 183.5078125 C410.85736141 185.11074785 408.80317524 186.72632058 406.75 188.34375 C382.17734341 207.66219839 356.48215251 226.02307818 329 241 C328.17999512 241.44843262 327.35999023 241.89686523 326.51513672 242.35888672 C301.96709984 255.71155238 301.96709984 255.71155238 295 254 C293.38474452 253.35762998 291.79084266 252.659733 290.21875 251.91796875 C289.30552979 251.48718018 288.39230957 251.0563916 287.45141602 250.61254883 C286.47744873 250.14228271 285.50348145 249.6720166 284.5 249.1875 C283.47898193 248.69467529 282.45796387 248.20185059 281.40600586 247.6940918 C262.26147858 238.32964752 244.54264671 227.06801696 227 215 C226.31357422 214.52852539 225.62714844 214.05705078 224.91992188 213.57128906 C208.61106204 202.30286972 192.98047559 189.99765387 177.69140625 177.39160156 C175.26322399 175.39381881 172.81713585 173.41818576 170.375 171.4375 C165.04492247 167.07145742 159.81559633 162.59255998 154.59765625 158.09375 C152.2621662 156.08054875 149.91643598 154.08071839 147.55859375 152.09375 C139.70168298 145.45514705 132.15809526 138.53838626 124.6875 131.46875 C121.75400202 128.69623667 118.77345199 125.98709214 115.75 123.3125 C111.48255386 119.51203029 107.44696823 115.5139743 103.45996094 111.4230957 C100.83480354 108.75005062 98.13863355 106.22837582 95.29370117 103.78930664 C91.11055629 100.14404753 87.16235518 96.30720472 83.24609375 92.37890625 C82.54154556 91.67531479 81.83699738 90.97172333 81.11109924 90.24681091 C79.63346633 88.76985352 78.15707543 87.29165258 76.68188477 85.81225586 C74.44333519 83.56834915 72.19949527 81.32983296 69.95507812 79.09179688 C68.51009596 77.64615382 67.06542408 76.20020055 65.62109375 74.75390625 C64.96048447 74.0953212 64.29987518 73.43673615 63.61924744 72.75819397 C59.75955795 68.87932476 56.08377024 64.89243447 52.51966858 60.73985291 C50.45609535 58.37728917 48.24676935 56.18764384 46 54 C42.49406958 50.53091869 39.17200737 46.99720673 35.96875 43.25 C33.92219407 40.91107894 31.81591566 38.63925327 29.69458008 36.3684082 C24.69105855 31.00999388 19.89333739 25.56304993 15.3046875 19.83984375 C13.58528146 17.7211858 11.84657881 15.63641757 10.0703125 13.56640625 C9.57088135 12.98375 9.0714502 12.40109375 8.55688477 11.80078125 C7.58400588 10.66912014 6.60808059 9.54006856 5.62866211 8.4140625 C3.31937686 5.72164488 1.5061599 3.20150138 0 0 Z " fill="#D3D6D1" transform="translate(301,825)"/>
<path d="M0 0 C16.17 0 32.34 0 49 0 C50.24652344 3.63 51.49304688 7.26 52.77734375 11 C61.15302869 35.36705476 69.55978363 59.72072439 78.1875 84 C78.53850769 84.98808655 78.88951538 85.9761731 79.25115967 86.99420166 C80.59711283 90.78290645 81.94317976 94.57157078 83.28952026 98.36013794 C86.07076248 106.19027086 88.83153336 114.02717614 91.5625 121.875 C91.92690186 122.91527344 92.29130371 123.95554687 92.66674805 125.02734375 C93.14301636 126.40212891 93.14301636 126.40212891 93.62890625 127.8046875 C93.89775635 128.57796387 94.16660645 129.35124023 94.44360352 130.14794922 C95 132 95 132 95 134 C96.49853516 134.30744141 96.49853516 134.30744141 98.02734375 134.62109375 C99.96287109 135.02521484 99.96287109 135.02521484 101.9375 135.4375 C103.22527344 135.70433594 104.51304687 135.97117187 105.83984375 136.24609375 C109 137 109 137 110 138 C110 147.9 110 157.8 110 168 C88.22 168 66.44 168 44 168 C44 157.77 44 147.54 44 137 C46.64 136.01 49.28 135.02 52 134 C51.67 130.37 51.34 126.74 51 123 C32.52 123.33 14.04 123.66 -5 124 C-5.66 127.3 -6.32 130.6 -7 134 C-4.03 135.32 -1.06 136.64 2 138 C2 147.9 2 157.8 2 168 C-19.12 168 -40.24 168 -62 168 C-62 158.1 -62 148.2 -62 138 C-53 134.625 -53 134.625 -48 134 C-47.83451157 133.42436813 -47.66902313 132.84873627 -47.4985199 132.25566101 C-45.43432599 125.21357558 -43.05827471 118.30675874 -40.59765625 111.39453125 C-40.1674115 110.18041565 -39.73716675 108.96630005 -39.29388428 107.71539307 C-38.12852114 104.42806573 -36.95973517 101.14196588 -35.78992081 97.85622025 C-35.0597726 95.80483724 -34.33047481 93.75315374 -33.60140991 91.7013855 C-26.40876575 71.46292635 -19.14563327 51.25047644 -11.8125 31.0625 C-11.38566925 29.88587799 -10.9588385 28.70925598 -10.51907349 27.49697876 C-9.31333942 24.17547467 -8.10457189 20.85509352 -6.89453125 17.53515625 C-6.54235535 16.56499573 -6.19017944 15.59483521 -5.82733154 14.59527588 C-5.33236176 13.24112579 -5.33236176 13.24112579 -4.82739258 11.85961914 C-4.54511307 11.08509903 -4.26283356 10.31057892 -3.97200012 9.5125885 C-2.73224064 6.30785081 -1.35357843 3.15834967 0 0 Z " fill="#FCFDFE" transform="translate(577,546)"/>
<path d="M0 0 C44.88 0 89.76 0 136 0 C136 16.5 136 33 136 50 C124.78 50 113.56 50 102 50 C97 35 97 35 97 33 C83.14 33 69.28 33 55 33 C55 45.54 55 58.08 55 71 C58.50625 70.979375 62.0125 70.95875 65.625 70.9375 C66.71893066 70.949021 67.81286133 70.96054199 68.93994141 70.97241211 C74.26421356 71.00697621 74.26421356 71.00697621 78.61474609 68.39477539 C79.26950928 67.44139282 79.26950928 67.44139282 79.9375 66.46875 C81.78653649 63.84967173 82.5071174 63.10475203 85.70068359 62.42602539 C88.95735599 62.31216105 92.11980701 62.38938869 95.375 62.5625 C99.21125 62.706875 103.0475 62.85125 107 63 C107 78.18 107 93.36 107 109 C101.2146875 109.2165625 101.2146875 109.2165625 95.3125 109.4375 C94.10505127 109.50122803 92.89760254 109.56495605 91.65356445 109.63061523 C88.63745234 109.68542608 85.95162042 109.6475002 83 109 C81.4113489 107.3179454 80.52278798 105.63059878 79.42114258 103.60522461 C77.32798569 101.240939 75.57766124 101.33795784 72.48046875 101.09765625 C70.38343992 101.04503342 68.28508468 101.0415812 66.1875 101.0625 C60.6496875 101.0315625 60.6496875 101.0315625 55 101 C55 111.89 55 122.78 55 134 C58.63 134.66 62.26 135.32 66 136 C67.65 136.66 69.3 137.32 71 138 C71 147.9 71 157.8 71 168 C46.58 168 22.16 168 -3 168 C-3 158.1 -3 148.2 -3 138 C6 135 6 135 13 134 C13 100.67 13 67.34 13 33 C6.565 31.515 6.565 31.515 0 30 C0 20.1 0 10.2 0 0 Z " fill="#FCFDFE" transform="translate(731,546)"/>
<path d="M0 0 C55.44 0 110.88 0 168 0 C168 17.49 168 34.98 168 53 C157.11 53 146.22 53 135 53 C134.01 46.73 133.02 40.46 132 34 C123.09 33.67 114.18 33.34 105 33 C105 66.33 105 99.66 105 134 C109.95 134.99 114.9 135.98 120 137 C127.31057073 144.31057073 121 157.66129172 121 168 C96.91 168 72.82 168 48 168 C48 158.1 48 148.2 48 138 C55.92 136.02 55.92 136.02 64 134 C64 100.67 64 67.34 64 33 C54.76 33 45.52 33 36 33 C35.67 36.96 35.34 40.92 35 45 C34.34 47.64 33.68 50.28 33 53 C22.11 53 11.22 53 0 53 C0 35.51 0 18.02 0 0 Z " fill="#FDFEFE" transform="translate(918,546)"/>
<path d="M0 0 C10.23 0 20.46 0 31 0 C33.43164062 7.29492188 35.86328125 14.58984375 38.29492188 21.88476562 C38.55806686 22.67416031 38.82121185 23.46355499 39.09233093 24.27687073 C39.62238666 25.86711936 40.15234458 27.45740059 40.6822052 29.04771423 C41.93324365 32.80218659 43.18562937 36.55619259 44.44213867 40.30883789 C44.66750809 40.98269028 44.8928775 41.65654266 45.12507629 42.35081482 C45.7291754 44.15674286 46.33403989 45.96241483 46.93896484 47.76806641 C47.97974686 50.93830854 48.96752922 54.11994717 49.9375 57.3125 C52.48880267 65.58490563 55.26244926 73.78734779 58 82 C58.33 61.87 58.66 41.74 59 21 C57.02 20.34 55.04 19.68 53 19 C52.34 18.67 51.68 18.34 51 18 C51 12.06 51 6.12 51 0 C63.54 0 76.08 0 89 0 C89 5.61 89 11.22 89 17 C83 21 83 21 81 21 C81 65.55 81 110.1 81 156 C71.16740088 154.77092511 71.16740088 154.77092511 66.75 153.5625 C65.25726562 153.19318359 65.25726562 153.19318359 63.734375 152.81640625 C56.11413089 147.75438695 54.01595172 132.39986465 51.140625 123.8359375 C50.58608101 122.19104889 50.0312876 120.54624436 49.47625732 118.90151978 C48.02712031 114.60510125 46.58133999 110.30756072 45.1362915 106.00976562 C43.65671623 101.61128719 42.17391982 97.213895 40.69140625 92.81640625 C37.79114395 84.21198864 34.89443195 75.60638047 32 67 C31.77136144 74.56166298 31.61401441 82.1224321 31.50561523 89.68676758 C31.46041938 92.25839545 31.39904833 94.82979287 31.32104492 97.40063477 C31.21156197 101.10230343 31.16076449 104.80091128 31.12109375 108.50390625 C31.07464218 109.64896133 31.02819061 110.79401642 30.98033142 111.97377014 C30.88792908 118.13578669 30.88792908 118.13578669 34.03260803 123.16758728 C36.44531449 125.01692049 36.44531449 125.01692049 38.97631836 126.45678711 C41 128 41 128 41.72619629 130.34899902 C41.8887378 132.76737241 41.78995423 135.02492994 41.5625 137.4375 C41.5015918 138.67790039 41.5015918 138.67790039 41.43945312 139.94335938 C41.33429078 141.96481327 41.17286792 143.98320758 41 146 C27.22074033 143.07556287 13.61030967 139.62619263 0 136 C0 130.72 0 125.44 0 120 C2.64 119.01 5.28 118.02 8 117 C8.33 85.32 8.66 53.64 9 21 C6.03 20.01 3.06 19.02 0 18 C0 12.06 0 6.12 0 0 Z " fill="#000000" transform="translate(478,212)"/>
<path d="M0 0 C-1.71530223 3.96663641 -4.33502915 7.20243881 -7 10.5625 C-7.73041504 11.48796631 -7.73041504 11.48796631 -8.47558594 12.43212891 C-12.37760806 17.32544144 -16.48239211 21.96864738 -20.73828125 26.55859375 C-22.67936659 28.65389313 -24.56984102 30.77704888 -26.4375 32.9375 C-31.1835265 38.38991184 -36.09482636 43.69126504 -41 49 C-41.5460791 49.59264648 -42.0921582 50.18529297 -42.65478516 50.79589844 C-49.48757635 58.20476091 -56.41521931 65.47990795 -63.58398438 72.56469727 C-67.04088021 75.99535581 -70.30250873 79.53205569 -73.46484375 83.23828125 C-77.17860229 87.5001263 -81.22735573 91.37341096 -85.53515625 95.02734375 C-90.95527677 99.7475707 -95.95734631 104.88535737 -101 110 C-106.5518481 115.6311063 -112.09163192 121.21515612 -118.10546875 126.359375 C-121.50139367 129.30017596 -124.73919819 132.41115453 -128 135.5 C-133.23248714 140.4565552 -138.54142062 145.29312585 -144 150 C-144.5662207 150.48839355 -145.13244141 150.97678711 -145.71582031 151.47998047 C-147.34986359 152.88525769 -148.98675732 154.28712127 -150.625 155.6875 C-154.2662957 158.80023641 -157.90588718 161.91435455 -161.5234375 165.0546875 C-168.87873135 171.42782964 -176.38037178 177.55356749 -184.078125 183.5078125 C-186.14263859 185.11074785 -188.19682476 186.72632058 -190.25 188.34375 C-214.82892649 207.66712765 -240.52470957 225.99797391 -268 241 C-269.22203125 241.67264893 -269.22203125 241.67264893 -270.46875 242.35888672 C-272.97256628 243.73105918 -275.48400851 245.08779616 -278 246.4375 C-279.11181641 247.03981445 -279.11181641 247.03981445 -280.24609375 247.65429688 C-286.10809691 250.74203651 -291.62228392 252.68083052 -298 255 C-298 247.08 -298 239.16 -298 231 C-294.7825 229.2675 -291.565 227.535 -288.25 225.75 C-272.01518415 216.92907934 -256.20297047 207.50509074 -241 197 C-240.33436035 196.54157715 -239.6687207 196.0831543 -238.98291016 195.61083984 C-228.0655547 188.06798612 -217.47380467 180.14485968 -207 172 C-206.39591309 171.53239258 -205.79182617 171.06478516 -205.16943359 170.58300781 C-186.98714728 156.50149363 -169.36326765 141.72702683 -152.40625 126.19140625 C-150.31434877 124.28628191 -148.20036615 122.41560939 -146.0625 120.5625 C-141.21477741 116.34155367 -136.48645685 111.99223722 -131.76585388 107.63041687 C-130.63532219 106.58659441 -129.50371788 105.54393172 -128.3707428 104.50276184 C-116.14982017 93.25806844 -104.39757864 81.55311538 -92.66967773 69.80004883 C-89.95698053 67.0815972 -87.23973564 64.36774207 -84.5211935 61.65513706 C-82.39424288 59.53181952 -80.26970332 57.40610232 -78.14586067 55.27967644 C-77.14480651 54.27796361 -76.14303251 53.27696953 -75.1404705 52.27676582 C-70.08438849 47.22999632 -65.1232809 42.16268138 -60.49964905 36.71372986 C-58.90585556 34.89241607 -57.22769839 33.19412079 -55.5 31.5 C-52.4905751 28.53728458 -49.70979225 25.43576691 -46.953125 22.23828125 C-43.87159983 18.70685341 -40.69447555 15.26317997 -37.52734375 11.80859375 C-35.10286327 9.24725533 -35.10286327 9.24725533 -33.76025391 7.15258789 C-31.61952701 4.13582755 -30.08625559 2.31871168 -26.46459961 1.25610352 C-23.46548147 0.86205321 -20.52267486 0.67140801 -17.5 0.5625 C-16.48035156 0.49869141 -15.46070313 0.43488281 -14.41015625 0.36914062 C-9.60595662 0.08488694 -4.81339407 -0.07417902 0 0 Z " fill="#FBFCFD" transform="translate(898,825)"/>
<path d="M0 0 C0 7.59 0 15.18 0 23 C-2.44921875 23.52207031 -4.8984375 24.04414063 -7.421875 24.58203125 C-41.5201574 31.89985309 -75.69696121 39.57256312 -109 50 C-109.97743164 50.30470215 -110.95486328 50.6094043 -111.96191406 50.92333984 C-118.25742668 52.8943088 -124.53706692 54.91106494 -130.80810547 56.95849609 C-132.92588012 57.64951848 -135.04469009 58.33737639 -137.16455078 59.02197266 C-178.1888993 72.28141465 -219.53069146 87.41375374 -258 107 C-257.71785414 116.97385598 -256.50033814 126.40034976 -254.52148438 136.17138672 C-252.92949446 144.09197391 -251.90040875 151.97135532 -251 160 C-258.26 160 -265.52 160 -273 160 C-274.47146865 155.58559405 -275.46272033 151.92324993 -276.18359375 147.40625 C-276.38766846 146.13845703 -276.59174316 144.87066406 -276.80200195 143.56445312 C-277.01422228 142.20969608 -277.22604718 140.85487705 -277.4375 139.5 C-277.65770326 138.10870924 -277.87800025 136.71743331 -278.09838867 135.32617188 C-279.40033863 127.06025749 -280.6540315 118.78733904 -281.8125 110.5 C-281.93616943 109.63052734 -282.05983887 108.76105469 -282.18725586 107.86523438 C-282.81834149 103.19492247 -283.12034927 98.71262398 -283 94 C-255.9276627 78.7944376 -226.83010406 67.37781402 -198 56 C-197.35200439 55.743255 -196.70400879 55.48651001 -196.03637695 55.22198486 C-180.43112033 49.03926 -164.66804077 43.43858874 -148.75 38.125 C-147.9378302 37.85355164 -147.1256604 37.58210327 -146.28887939 37.3024292 C-135.90567891 33.84241701 -125.47646352 30.60492798 -114.96099854 27.57147217 C-112.14414427 26.75058741 -109.33567526 25.90248627 -106.52677917 25.05484009 C-98.90544228 22.75577462 -91.22910216 20.76313294 -83.49707031 18.87280273 C-78.82564104 17.72550471 -74.1883939 16.50826421 -69.56640625 15.17602539 C-58.03544019 11.8529385 -46.34513376 9.33322892 -34.62109375 6.79248047 C-30.87886314 5.97348906 -27.14217028 5.13244381 -23.40625 4.28515625 C-21.56148071 3.86834595 -21.56148071 3.86834595 -19.67944336 3.44311523 C-17.31242253 2.90771957 -14.94602052 2.3695788 -12.58032227 1.82836914 C-10.98015259 1.46859985 -10.98015259 1.46859985 -9.34765625 1.1015625 C-7.94012085 0.78179443 -7.94012085 0.78179443 -6.50415039 0.45556641 C-4 0 -4 0 0 0 Z " fill="#D2D5D1" transform="translate(397,295)"/>
<path d="M0 0 C16.57570579 2.87439985 32.93140012 6.2494141 49.3125 10.0625 C50.23334381 10.27573914 51.15418762 10.48897827 52.10293579 10.7086792 C61.7634943 12.95128005 71.35565588 15.29377827 80.87231445 18.09057617 C83.89202182 18.96860364 86.92057846 19.78212143 89.96484375 20.5703125 C106.46367765 24.85033322 122.6742037 29.88012583 138.83612061 35.27740479 C140.30448325 35.76774257 141.77312074 36.25725791 143.24200439 36.74603271 C191.23680468 52.71705317 237.7513629 71.33908867 283 94 C281.02648286 116.32556621 277.86710766 138.09801553 273 160 C265.74 160 258.48 160 251 160 C251 152.13347802 251 152.13347802 251.76953125 148.390625 C251.93485352 147.56248291 252.10017578 146.73434082 252.27050781 145.88110352 C252.44936523 145.01283936 252.62822266 144.1445752 252.8125 143.25 C254.24009707 136.03731481 255.58838408 128.82313694 256.75 121.5625 C256.87737549 120.78874023 257.00475098 120.01498047 257.13598633 119.21777344 C257.25095459 118.48719727 257.36592285 117.75662109 257.484375 117.00390625 C257.58459961 116.37299072 257.68482422 115.7420752 257.78808594 115.09204102 C258.06194754 112.38844642 258.03182283 109.71530696 258 107 C238.84514934 98.19933182 219.62131065 89.72152361 200 82 C198.9495752 81.58250488 197.89915039 81.16500977 196.81689453 80.73486328 C179.8714661 74.0257298 162.68566845 68.0639306 145.4375 62.1875 C144.37594696 61.8250116 143.31439392 61.46252319 142.22067261 61.08905029 C125.07846919 55.24620589 107.83687264 49.88719257 90.40478516 44.9777832 C88.13202702 44.32509452 85.86585757 43.64901809 83.60693359 42.94995117 C69.84331065 38.72712266 55.8397356 35.58738588 41.8125 32.375 C39.3104451 31.79731562 36.80849128 31.21919327 34.30664062 30.640625 C22.88901742 28.00559234 11.46938177 25.40116233 0 23 C0 15.41 0 7.82 0 0 Z " fill="#D2D5D1" transform="translate(803,295)"/>
<path d="M0 0 C22.77 0 45.54 0 69 0 C69 11.55 69 23.1 69 35 C64.05 35 59.1 35 54 35 C50 23.25 50 23.25 50 21 C44.06 21 38.12 21 32 21 C32 34.2 32 47.4 32 61 C38.435 60.505 38.435 60.505 45 60 C46.70096369 57.69154928 48.37005472 55.35913133 50 53 C53.63 53 57.26 53 61 53 C61 64.88 61 76.76 61 89 C50 89 50 89 47.3125 86.625 C46 84 46 84 46 82 C41.38 82 36.76 82 32 82 C31.97245143 90.58085677 31.97476408 99.16015597 32.02846622 107.74083614 C32.05223849 111.72600562 32.06333952 115.71034203 32.04467773 119.69555664 C32.02711934 123.54756486 32.04389679 127.39808274 32.08367729 131.24991035 C32.09291339 132.71334837 32.09014012 134.17691701 32.07469368 135.64030266 C31.96196671 145.56902918 31.96196671 145.56902918 36.51367188 154.18359375 C37.46409363 155.14628174 37.46409363 155.14628174 38.43371582 156.12841797 C41.18933466 159.42115805 40.76386202 162.97042233 40.4375 167.0625 C40.40591797 167.83271484 40.37433594 168.60292969 40.34179688 169.39648438 C40.26051236 171.26602823 40.1350004 173.13356589 40 175 C31.28793422 172.57334561 22.84655403 169.45432842 14.375 166.3125 C12.97536233 165.79594774 11.57562342 165.27966971 10.17578125 164.76367188 C6.78248264 163.51276949 3.39132873 162.25628467 0 161 C0 155.72 0 150.44 0 145 C2.97 144.01 5.94 143.02 9 142 C8.67 102.4 8.34 62.8 8 22 C5.36 20.68 2.72 19.36 0 18 C0 12.06 0 6.12 0 0 Z " fill="#000000" transform="translate(575,212)"/>
<path d="M0 0 C-4.19737449 4.53204887 -10.2211195 9.34039117 -16.39453125 10.41796875 C-18.26781784 10.37973841 -20.13698615 10.19960863 -22 10 C-22.99 10.33 -23.98 10.66 -25 11 C-25 11.66 -25 12.32 -25 13 C-23.7625 13.0928125 -23.7625 13.0928125 -22.5 13.1875 C-18.55405666 14.10352256 -16.16666602 15.68607811 -12.9296875 18.0390625 C-11.01634574 19.22427004 -11.01634574 19.22427004 -8.7578125 18.6484375 C-8.17773438 18.43445313 -7.59765625 18.22046875 -7 18 C-7.495 16.515 -7.495 16.515 -8 15 C-8.66 14.67 -9.32 14.34 -10 14 C-8.48715615 10.19652252 -6.25432462 8.31065348 -3.0625 5.8125 C-1.74958984 4.77029297 -1.74958984 4.77029297 -0.41015625 3.70703125 C2 2 2 2 5 1 C12.02541158 8.62931516 12.70326332 24.4812023 12.37890625 34.28515625 C10.65225081 51.21349977 4.31147217 66.01251394 -8 78 C-8.59039063 78.62261719 -9.18078125 79.24523437 -9.7890625 79.88671875 C-22.57108919 92.41535725 -43.5856585 98.67199014 -61 99 C-60.35395594 86.72516282 -55.48401421 75.63716495 -50.375 64.625 C-49.79878906 63.36647217 -49.79878906 63.36647217 -49.2109375 62.08251953 C-48.8396875 61.30505371 -48.4684375 60.52758789 -48.0859375 59.7265625 C-47.7564209 59.03127441 -47.4269043 58.33598633 -47.08740234 57.61962891 C-46 56 -46 56 -43 55 C-40.3125 56.4375 -40.3125 56.4375 -38 58 C-37.34 56.35 -36.68 54.7 -36 53 C-36.72058594 52.71253906 -37.44117188 52.42507812 -38.18359375 52.12890625 C-39.9696416 51.4130008 -41.75375221 50.69222753 -43.53515625 49.96484375 C-44.36917969 49.62582031 -45.20320312 49.28679687 -46.0625 48.9375 C-46.89910156 48.59589844 -47.73570312 48.25429687 -48.59765625 47.90234375 C-50.72360823 47.10381544 -52.78686571 46.49578297 -55 46 C-55 47.32 -55 48.64 -55 50 C-53.68 50.33 -52.36 50.66 -51 51 C-51.69004516 55.34811588 -53.19535347 59.24501085 -54.8125 63.3125 C-59.00335691 74.17997337 -62.16699403 85.33791638 -63 97 C-63.66 97 -64.32 97 -65 97 C-72.13002312 77.87857436 -72.68102175 56.35250334 -64.4921875 37.53515625 C-55.72436944 20.06069096 -41.09002299 8.910259 -23.1875 1.8984375 C-15.51889094 -0.54364931 -7.96494998 -0.29022085 0 0 Z " fill="#FAFBFC" transform="translate(629,83)"/>
<path d="M0 0 C13.53 0 27.06 0 41 0 C41 5.94 41 11.88 41 18 C35 21 35 21 33 21 C33 54.33 33 87.66 33 122 C37.62 120.68 42.24 119.36 47 118 C47.99 118 48.98 118 50 118 C51.485 104.635 51.485 104.635 53 91 C58.61 91 64.22 91 70 91 C70 105.85 70 120.7 70 136 C55.4375 139.75 55.4375 139.75 50.94702148 140.90527344 C39.88552251 143.75693503 28.83655952 146.65178113 17.828125 149.703125 C16.89742187 149.9609375 15.96671875 150.21875 15.0078125 150.484375 C13.12172114 151.00799243 11.23633476 151.53415414 9.3515625 152.0625 C7.97871094 152.44148438 7.97871094 152.44148438 6.578125 152.828125 C5.76762695 153.0540332 4.95712891 153.27994141 4.12207031 153.51269531 C2 154 2 154 -1 154 C-1.2459732 151.32769861 -1.4221245 148.67827538 -1.5625 146 C-1.63791016 145.25621094 -1.71332031 144.51242187 -1.79101562 143.74609375 C-1.8900507 141.21519736 -1.75476339 139.42901272 -1 137 C1.01866055 135.18778992 1.01866055 135.18778992 3.49107361 133.3894043 C6.99325587 130.3998203 8.62604606 128.60766802 9.08229065 123.97583008 C9.10811265 122.07379862 9.08503231 120.17068434 9.02172852 118.26953125 C9.02304276 117.22473099 9.02435699 116.17993073 9.02571106 115.10346985 C9.01947153 111.67139743 8.94962498 108.24379772 8.87890625 104.8125 C8.862109 102.42499188 8.84930311 100.03745264 8.84031677 97.64990234 C8.80604146 91.38223815 8.71770939 85.11646723 8.61798096 78.84954834 C8.5257217 72.44813649 8.48476779 66.04641707 8.43945312 59.64453125 C8.34308615 47.09552477 8.18958877 34.54792015 8 22 C5.36 20.68 2.72 19.36 0 18 C0 12.06 0 6.12 0 0 Z " fill="#000000" transform="translate(652,212)"/>
<path d="M0 0 C37.00053763 0 37.00053763 0 46.37890625 9.06640625 C51.20120919 14.81830976 53.10040984 21.00718597 53.17700195 28.42016602 C53.19625481 30.04819908 53.19625481 30.04819908 53.21589661 31.7091217 C53.22328354 32.8789006 53.23067047 34.0486795 53.23828125 35.25390625 C53.246353 36.46513657 53.25442474 37.67636688 53.26274109 38.92430115 C53.27657314 41.49061659 53.28729922 44.05695036 53.29516602 46.62329102 C53.31232755 50.52331086 53.3562178 54.42247162 53.40039062 58.32226562 C53.41052257 60.82030629 53.4190371 63.31835414 53.42578125 65.81640625 C53.44328934 66.97201553 53.46079742 68.12762482 53.47883606 69.31825256 C53.4572462 77.49070098 52.586819 85.72362997 47.14985657 92.20582581 C34.83543584 104.23082753 15.50933147 101 0 101 C0 67.67 0 34.34 0 0 Z " fill="#000000" transform="translate(171,579)"/>
<path d="M0 0 C6.105 -0.061875 12.21 -0.12375 18.5 -0.1875 C20.41103516 -0.21481201 22.32207031 -0.24212402 24.29101562 -0.27026367 C25.82942068 -0.27903694 27.36783278 -0.28667888 28.90625 -0.29296875 C30.07559082 -0.3159906 30.07559082 -0.3159906 31.26855469 -0.33947754 C37.73434426 -0.34251979 43.35533051 0.76220274 48.4375 5.0625 C52.17836207 9.70116896 51.30121506 15.0216055 51.375 20.75 C51.43107422 22.37808594 51.43107422 22.37808594 51.48828125 24.0390625 C51.58726264 33.03537086 51.58726264 33.03537086 48.8515625 36.640625 C43.23521616 41.28757457 37.62299943 41.2807932 30.6640625 41.1953125 C29.88377686 41.19329834 29.10349121 41.19128418 28.29956055 41.18920898 C25.40797985 41.17881065 22.5164835 41.15088841 19.625 41.125 C9.910625 41.063125 9.910625 41.063125 0 41 C0 27.47 0 13.94 0 0 Z " fill="#000000" transform="translate(373,575)"/>
<path d="M0 0 C0.25723745 8.35651212 -0.50077785 16.35873155 -1.6875 24.625 C-1.86249023 25.8730542 -2.03748047 27.1211084 -2.21777344 28.40698242 C-4.00076404 40.71444066 -6.43834343 52.83213128 -9 65 C-16.26 65 -23.52 65 -31 65 C-31 57.13605442 -31 57.13605442 -30.265625 53.6015625 C-30.10658691 52.80451904 -29.94754883 52.00747559 -29.78369141 51.1862793 C-29.41713849 49.42712714 -29.04957062 47.66818627 -28.68115234 45.90942383 C-27.62649246 40.72186549 -26.81826703 35.6218914 -26.3359375 30.34765625 C-24.56295473 12.68349461 -24.56295473 12.68349461 -19.87890625 8.78125 C-16.47113682 6.60754918 -12.80793562 5.33257119 -9 4 C-7.71100907 3.30308146 -6.4356764 2.58026735 -5.17578125 1.83203125 C-2 0 -2 0 0 0 Z " fill="#FBFCFD" transform="translate(1085,390)"/>
<path d="M0 0 C19.31277174 6.11470203 19.31277174 6.11470203 23.04345703 12.89697266 C24.68093642 17.71712675 25.12525536 22.7361146 25.62841797 27.77880859 C26.05642658 31.48915395 26.66787662 35.15543586 27.31640625 38.83203125 C27.43469284 39.50602463 27.55297943 40.18001801 27.67485046 40.87443542 C27.91449402 42.23849691 28.15443831 43.60250559 28.39468384 44.96646118 C28.96399768 48.22474752 29.509394 51.48628295 30.046875 54.75 C30.23088867 55.85859375 30.41490234 56.9671875 30.60449219 58.109375 C31 61 31 61 31 65 C23.74 65 16.48 65 9 65 C7.49917377 60.49752131 6.5109968 56.74083786 5.78125 52.125 C5.67784302 51.47861572 5.57443604 50.83223145 5.46789551 50.16625977 C5.14052256 48.11155887 4.82026781 46.05581892 4.5 44 C4.28559636 42.65227366 4.07075574 41.30461676 3.85546875 39.95703125 C3.22192011 35.9735949 2.60919547 31.9872363 2 28 C1.80293457 26.73140137 1.60586914 25.46280273 1.40283203 24.15576172 C0.48999845 18.08933979 -0.25021537 12.26055326 -0.125 6.125 C-0.10695313 4.95195312 -0.08890625 3.77890625 -0.0703125 2.5703125 C-0.04710938 1.72210938 -0.02390625 0.87390625 0 0 Z " fill="#FCFCFD" transform="translate(115,390)"/>
<path d="M0 0 C0.66 0 1.32 0 2 0 C10.64331137 23.94664923 10.64331137 23.94664923 14.4375 34.625 C14.78868896 35.60617798 14.78868896 35.60617798 15.14697266 36.60717773 C19 47.49375721 19 47.49375721 19 53 C7.12 53 -4.76 53 -17 53 C-15.87492458 42.87432124 -15.87492458 42.87432124 -14.63305664 39.36987305 C-14.35929703 38.58263351 -14.08553741 37.79539398 -13.80348206 36.98429871 C-13.36128578 35.76037163 -13.36128578 35.76037163 -12.91015625 34.51171875 C-12.60556992 33.64609818 -12.30098358 32.7804776 -11.98716736 31.8886261 C-11.34692036 30.07447175 -10.70212745 28.26191583 -10.05297852 26.45092773 C-9.0601377 23.6809092 -8.08064471 20.90645469 -7.10351562 18.13085938 C-6.47732565 16.36170886 -5.85039833 14.59281913 -5.22265625 12.82421875 C-4.92988297 11.99814621 -4.63710968 11.17207367 -4.33546448 10.32096863 C-4.0585527 9.5494899 -3.78164093 8.77801117 -3.49633789 7.9831543 C-3.25508682 7.30858688 -3.01383575 6.63401947 -2.76527405 5.93901062 C-1.95703058 3.89112638 -1.01171767 1.9543435 0 0 Z " fill="#000000" transform="translate(599,585)"/>
<path d="M0 0 C0.66 0 1.32 0 2 0 C3.32 3.96 4.64 7.92 6 12 C12.93 12.495 12.93 12.495 20 13 C16.83047153 16.26008643 13.60062011 19.22237877 10 22 C10.13277344 22.59167969 10.26554688 23.18335937 10.40234375 23.79296875 C11.31005178 27.85446525 12.2091113 31.91374171 13 36 C9.93214462 34.94816387 7.96651855 33.97070373 5.5 31.8125 C3.19389095 29.78111699 3.19389095 29.78111699 0.625 29.9375 C-2.46714162 31.18908113 -4.83213401 32.89300068 -7.44921875 34.94140625 C-9 36 -9 36 -11 36 C-10.01 31.38 -9.02 26.76 -8 22 C-10.475 20.0509375 -10.475 20.0509375 -13 18.0625 C-14.68711537 16.73389665 -16.35944378 15.3856841 -18 14 C-18 13.67 -18 13.34 -18 13 C-13.38 13 -8.76 13 -4 13 C-3.525625 11.411875 -3.05125 9.82375 -2.5625 8.1875 C-1.74279395 5.44326671 -0.90577506 2.71732519 0 0 Z " fill="#F1F4F7" transform="translate(666,100)"/>
<path d="M0 0 C2.5499869 1.27499345 2.65976415 2.18491352 3.625 4.8125 C3.88539063 5.49957031 4.14578125 6.18664062 4.4140625 6.89453125 C5 9 5 9 5 13 C9.95 13 14.9 13 20 13 C16.68908998 16.31091002 13.65992062 19.17663266 10 22 C10.31127516 23.58357459 10.62407289 25.16684993 10.9375 26.75 C11.19853516 28.07257813 11.19853516 28.07257813 11.46484375 29.421875 C11.92368488 31.63235053 12.43336074 33.81512068 13 36 C9.93630455 34.94959013 7.99904338 33.99914149 5.5625 31.8125 C3.12320766 29.72834661 3.12320766 29.72834661 0.0625 29.9375 C-3.84041764 31.29157347 -5.91774428 33.26800061 -9 36 C-9.66 36 -10.32 36 -11 36 C-10.01 31.38 -9.02 26.76 -8 22 C-10.475 20.0509375 -10.475 20.0509375 -13 18.0625 C-14.68711537 16.73389665 -16.35944378 15.3856841 -18 14 C-18 13.67 -18 13.34 -18 13 C-13.38 13 -8.76 13 -4 13 C-3.525625 11.22625 -3.05125 9.4525 -2.5625 7.625 C-1.125 2.25 -1.125 2.25 0 0 Z " fill="#F2F4F7" transform="translate(532,100)"/>
<path d="M0 0 C0.66 0 1.32 0 2 0 C3.32 3.96 4.64 7.92 6 12 C12.93 12.495 12.93 12.495 20 13 C16.83047153 16.26008643 13.60062011 19.22237877 10 22 C10.71452588 26.76350585 11.79534844 31.34201396 13 36 C10.4140158 34.80646883 8.368576 33.52979064 6.0625 31.8125 C3.24319097 29.80822333 3.24319097 29.80822333 0.5625 29.9375 C-2.48690865 31.20188895 -4.85813363 32.91335071 -7.44921875 34.94140625 C-9 36 -9 36 -11 36 C-10.77183594 35.25234375 -10.54367187 34.5046875 -10.30859375 33.734375 C-10.02113281 32.74953125 -9.73367188 31.7646875 -9.4375 30.75 C-9.14746094 29.77546875 -8.85742188 28.8009375 -8.55859375 27.796875 C-7.98576478 24.92872433 -7.77072919 23.62866392 -9 21 C-11.06702376 19.04025103 -11.06702376 19.04025103 -13.5625 17.3125 C-15.05438949 16.22558519 -16.53727411 15.12585569 -18 14 C-18 13.67 -18 13.34 -18 13 C-13.38 12.67 -8.76 12.34 -4 12 C-2.68 8.04 -1.36 4.08 0 0 Z " fill="#F3F5F7" transform="translate(479,100)"/>
<path d="M0 0 C2 1 2 1 2.8515625 2.9609375 C3.10679687 3.75757812 3.36203125 4.55421875 3.625 5.375 C4.01558594 6.56222656 4.01558594 6.56222656 4.4140625 7.7734375 C5 10 5 10 5 13 C9.95 13 14.9 13 20 13 C16.12038353 16.87961647 13.43416733 19.2157554 9 22 C9.34224609 23.01320313 9.34224609 23.01320313 9.69140625 24.046875 C9.97886719 24.93890625 10.26632812 25.8309375 10.5625 26.75 C10.85253906 27.63171875 11.14257812 28.5134375 11.44140625 29.421875 C12 32 12 32 11 36 C7.7 33.69 4.4 31.38 1 29 C-4.445 32.465 -4.445 32.465 -10 36 C-11.21065165 32.36804504 -10.62784815 30.93468371 -9.5625 27.3125 C-9.27503906 26.31863281 -8.98757813 25.32476562 -8.69140625 24.30078125 C-8.46324219 23.54152344 -8.23507812 22.78226563 -8 22 C-8.7940625 21.43410156 -9.588125 20.86820313 -10.40625 20.28515625 C-11.4271875 19.55167969 -12.448125 18.81820312 -13.5 18.0625 C-14.5209375 17.33160156 -15.541875 16.60070312 -16.59375 15.84765625 C-17.3878125 15.23792969 -18.181875 14.62820312 -19 14 C-19 13.67 -19 13.34 -19 13 C-14.05 13 -9.1 13 -4 13 C-3.525625 11.22625 -3.05125 9.4525 -2.5625 7.625 C-1.125 2.25 -1.125 2.25 0 0 Z " fill="#F4F6F8" transform="translate(719,100)"/>
<path d="M0 0 C0.66 0 1.32 0 2 0 C3.32 3.96 4.64 7.92 6 12 C12.93 12.495 12.93 12.495 20 13 C16.88983545 16.28788824 13.98381075 18.83735988 10 21 C10.64187918 26.13503344 11.68272247 30.9943454 13 36 C6.29616725 32.26132404 6.29616725 32.26132404 3.875 30.125 C2.02635231 28.7233007 2.02635231 28.7233007 -0.25 29.5 C-3.93644964 31.51079071 -7.48020154 33.7116943 -11 36 C-9.9318153 30.88634986 -8.76892524 25.92772031 -7 21 C-7.515625 20.773125 -8.03125 20.54625 -8.5625 20.3125 C-11.90966116 18.51018245 -15.03890492 16.38717496 -18 14 C-18 13.67 -18 13.34 -18 13 C-13.38 13 -8.76 13 -4 13 C-3.525625 11.22625 -3.05125 9.4525 -2.5625 7.625 C-1.125 2.25 -1.125 2.25 0 0 Z " fill="#F5F7F9" transform="translate(666,148)"/>
<path d="M0 0 C0.66 0 1.32 0 2 0 C2.67057887 1.7902061 3.3363469 3.58221489 4 5.375 C4.556875 6.87160156 4.556875 6.87160156 5.125 8.3984375 C6 11 6 11 6 13 C10.62 13 15.24 13 20 13 C14.35475578 18.80205656 14.35475578 18.80205656 11 21 C10.34 21 9.68 21 9 21 C9.30035156 21.91523438 9.60070312 22.83046875 9.91015625 23.7734375 C10.29042969 24.96195313 10.67070312 26.15046875 11.0625 27.375 C11.44535156 28.55835938 11.82820313 29.74171875 12.22265625 30.9609375 C13 34 13 34 12 36 C11.33613281 35.47148437 10.67226563 34.94296875 9.98828125 34.3984375 C9.10527344 33.73070312 8.22226562 33.06296875 7.3125 32.375 C6.44238281 31.70210937 5.57226562 31.02921875 4.67578125 30.3359375 C2.09095331 28.68552078 2.09095331 28.68552078 -0.5625 29.625 C-2.84887508 30.91475004 -5.10546573 32.2035203 -7.3125 33.625 C-8.00988281 34.07101563 -8.70726562 34.51703125 -9.42578125 34.9765625 C-9.94527344 35.31429687 -10.46476562 35.65203125 -11 36 C-10.52229477 34.06213915 -10.04278429 32.12472326 -9.5625 30.1875 C-9.29566406 29.10855469 -9.02882813 28.02960938 -8.75390625 26.91796875 C-8.23922588 24.9259157 -7.65062825 22.95188476 -7 21 C-7.515625 20.773125 -8.03125 20.54625 -8.5625 20.3125 C-11.90966116 18.51018245 -15.03890492 16.38717496 -18 14 C-18 13.67 -18 13.34 -18 13 C-13.38 13 -8.76 13 -4 13 C-3.525625 11.411875 -3.05125 9.82375 -2.5625 8.1875 C-1.74279395 5.44326671 -0.90577506 2.71732519 0 0 Z " fill="#F5F7F9" transform="translate(479,148)"/>
<path d="M0 0 C2.03529587 2.03529587 2.6384272 3.23417382 3.625 5.875 C4.01558594 6.89207031 4.01558594 6.89207031 4.4140625 7.9296875 C5 10 5 10 5 14 C9.62 14 14.24 14 19 14 C16.14723863 16.93200474 13.34920216 19.64315404 10 22 C10.56606279 26.69023454 11.18537505 31.34500026 12 36 C8.00499382 34.6302836 5.19990508 32.74277578 2 30 C-2.77609498 31.64178265 -6.79382904 34.26546702 -11 37 C-9.07289294 26.44191344 -9.07289294 26.44191344 -7 22 C-7.70125 21.773125 -8.4025 21.54625 -9.125 21.3125 C-12.71586536 19.6731919 -15.07780486 17.65036303 -18 15 C-18 14.67 -18 14.34 -18 14 C-13.38 14 -8.76 14 -4 14 C-3.71125 12.618125 -3.4225 11.23625 -3.125 9.8125 C-2.36695066 6.3796194 -1.45231137 3.21583233 0 0 Z " fill="#F5F7F9" transform="translate(719,147)"/>
<path d="M0 0 C2 1 2 1 3.0703125 3.72265625 C4.046875 6.81510417 5.0234375 9.90755208 6 13 C12.93 13.495 12.93 13.495 20 14 C16.72724974 17.27275026 13.85411644 19.54738045 10 22 C10.144375 23.010625 10.28875 24.02125 10.4375 25.0625 C10.95833333 28.70833333 11.47916667 32.35416667 12 36 C9.38284942 34.79208435 7.37709024 33.52287763 5.0625 31.75 C2.22868348 29.6938069 2.22868348 29.6938069 -0.375 30.4375 C-3.95496122 32.5684293 -7.50687663 34.72903642 -11 37 C-9.9318153 31.88634986 -8.76892524 26.92772031 -7 22 C-7.515625 21.773125 -8.03125 21.54625 -8.5625 21.3125 C-11.90966116 19.51018245 -15.03890492 17.38717496 -18 15 C-18 14.67 -18 14.34 -18 14 C-13.38 14 -8.76 14 -4 14 C-3.525625 12.246875 -3.05125 10.49375 -2.5625 8.6875 C-1.77029018 5.75976807 -0.95928532 2.87785595 0 0 Z " fill="#F5F7F9" transform="translate(532,147)"/>
<path d="M0 0 C7.48116133 0.28230797 12.65074114 3.18344183 19 7 C18.34 8.65 17.68 10.3 17 12 C14.69 11.34 12.38 10.68 10 10 C0.64217847 28.82190325 0.64217847 28.82190325 -5 49 C-5.99 48.34 -6.98 47.68 -8 47 C-7.53959727 40.05896838 -6.33055923 33.75523933 -4.25 27.125 C-3.98558105 26.26165039 -3.72116211 25.39830078 -3.44873047 24.50878906 C-1.35840266 17.8212412 1.07324582 11.37151795 4 5 C2.35 4.67 0.7 4.34 -1 4 C-0.67 2.68 -0.34 1.36 0 0 Z " fill="#000000" transform="translate(574,129)"/>
<path d="M0 0 C3.63 0 7.26 0 11 0 C9.92116794 5.3941603 9.72527896 5.7077245 5.5625 8.625 C2.63364366 10.7029366 1.02205373 11.96691941 -1 15 C0.32 15.66 1.64 16.32 3 17 C2.34 18.32 1.68 19.64 1 21 C-2.3316168 20.31976269 -5.05071049 19.06267812 -8.0625 17.5 C-10.72273359 16.12387917 -13.15319233 14.94893589 -16 14 C-16 13.34 -16 12.68 -16 12 C-13 10 -13 10 -9.5 10.3125 C-3.33206984 10.54179108 1.17204905 6.3893191 6 3 C6.66 2.67 7.32 2.34 8 2 C5.36 1.67 2.72 1.34 0 1 C0 0.67 0 0.34 0 0 Z " fill="#000000" transform="translate(620,82)"/>
<path d="M0 0 C5.83755814 0.46085985 11.15738374 2.76868591 16 6 C17.296875 8.16796875 17.296875 8.16796875 18 10 C17.01 10.99 16.02 11.98 15 13 C14.20335937 12.59007812 13.40671875 12.18015625 12.5859375 11.7578125 C11.52632812 11.21898437 10.46671875 10.68015625 9.375 10.125 C8.33085938 9.59132813 7.28671875 9.05765625 6.2109375 8.5078125 C3.18198375 7.08545709 0.19356666 5.9877999 -3 5 C-2.01 3.35 -1.02 1.7 0 0 Z " fill="#000000" transform="translate(581,118)"/>
<path d="M0 0 C4.55315948 0.61811534 8.28459767 2.46765893 12.3125 4.5625 C13.28026367 5.0565332 13.28026367 5.0565332 14.26757812 5.56054688 C15.84785228 6.36824255 17.42432105 7.18337613 19 8 C18.34 9.32 17.68 10.64 17 12 C12.89259639 12 12.00515439 11.66391371 8.6875 9.625 C4.8146159 7.3615429 1.35640927 6.01958515 -3 5 C-2.01 3.35 -1.02 1.7 0 0 Z " fill="#000000" transform="translate(588,108)"/>
<path d="M0 0 C5.58251624 1.28123324 10.07088881 3.71392587 14.8125 6.875 C13.0625 10.75 13.0625 10.75 10.8125 11.875 C9.18359375 10.984375 9.18359375 10.984375 7.25 9.625 C2.98755838 6.81726322 -1.30153068 5.26614404 -6.1875 3.875 C-6.1875 3.215 -6.1875 2.555 -6.1875 1.875 C-3.1875 -0.125 -3.1875 -0.125 0 0 Z " fill="#000000" transform="translate(600.1875,100.125)"/>
</svg>
